<svg width="192" height="108" viewBox="0 0 192 108" fill="none" xmlns="http://www.w3.org/2000/svg">
<rect width="192" height="108" fill="#252525"/>
<path d="M107.362 22.1006L115.875 22.4795C117.409 22.4355 121.023 22.9121 124.103 25.1406H125.898C125.926 25.1406 125.955 25.1424 125.982 25.1455L128.352 25.4092C128.359 25.41 128.367 25.411 128.375 25.4121L130.028 25.6475C130.225 25.5821 130.469 25.5207 130.718 25.4971C130.891 25.4806 131.107 25.4785 131.325 25.5322C131.542 25.5855 131.804 25.7059 131.997 25.9609L132.016 25.9854L132.036 26.0156C132.136 26.1663 132.192 26.3333 132.227 26.4512C132.268 26.5935 132.301 26.7517 132.327 26.9111C132.381 27.2313 132.418 27.609 132.44 27.9824C132.485 28.7074 132.484 29.5335 132.41 29.9746C132.393 30.0752 132.357 30.1717 132.302 30.2578C132.187 30.4379 132.023 30.5464 131.919 30.6064C131.81 30.6688 131.686 30.7226 131.549 30.7686C131.592 30.8108 131.63 30.8584 131.662 30.9102L132.105 31.625L133.029 32.2656L133.045 32.2773C133.204 32.3937 133.311 32.5672 133.345 32.7617C133.366 32.8887 133.422 33.121 133.511 33.3555C133.599 33.5905 133.692 33.7517 133.763 33.8301L133.776 33.8447L133.8 33.8682C133.911 33.9894 133.98 34.1443 133.996 34.3086L134.097 35.3428C134.42 35.9443 134.73 37.0056 134.889 38.5039C135.067 40.1883 135.063 42.4968 134.635 45.4854C134.616 45.6179 134.562 45.7435 134.479 45.8486C134.196 46.2076 133.486 47.0366 132.718 47.7285C132.595 48.4408 132.403 49.2249 132.133 49.9492C131.834 50.7503 131.408 51.5666 130.801 52.1016C130.488 52.3776 130.107 52.596 129.659 52.6758C129.206 52.7564 128.744 52.6854 128.292 52.4795C127.516 52.1261 126.745 51.3653 125.952 50.1982L107.52 53.7617C106.93 55.3166 105.794 57.2244 104.063 58.1025C103.081 58.6012 101.931 58.7532 100.664 58.3438C99.5001 57.9674 98.2844 57.1327 97.0146 55.7578C94.0912 55.9827 87.3081 56.2802 80.5547 55.875C80.5458 55.8745 80.5362 55.8739 80.5273 55.873L59.3555 53.8555C59.3356 53.8536 59.3155 53.8501 59.2959 53.8467C58.9356 53.7835 58.4068 53.6154 57.9473 53.291C57.4779 52.9597 57 52.3992 57 51.5771C57.0001 51.4614 57.0263 51.3471 57.0771 51.2432L57.7178 49.9375L57.3535 45.1133C57.3384 44.9126 57.4032 44.7143 57.5342 44.5615L58.3008 43.667L58.5771 42.6611C58.6206 42.5031 58.7143 42.3633 58.8438 42.2627L59.3027 41.9053C59.2761 41.5617 59.2605 41.1588 59.2754 40.7832C59.2861 40.5118 59.3142 40.2166 59.3818 39.958C59.4157 39.8287 59.4667 39.679 59.5498 39.5371C59.6125 39.4301 59.7111 39.298 59.8594 39.1924C60.4455 38.6223 61.8458 37.4566 63.4639 36.6855C63.6988 36.4347 64.037 36.1672 64.4619 35.8945C64.9851 35.5589 65.6809 35.189 66.5693 34.8105C68.3326 34.0595 70.8825 33.2621 74.415 32.625L75.8164 32.0283C77.8698 30.3636 83.016 26.629 87.9434 24.4219C88.892 23.9679 91.6433 23.0881 95.6953 22.8037C100.667 22.4548 99.6236 22.3634 107.303 22.0996H107.333C107.343 22.0997 107.353 22.1002 107.362 22.1006ZM107.325 23.6211C99.7138 23.8829 100.824 23.9678 95.8018 24.3203C91.8693 24.5963 89.3113 25.4498 88.5918 25.7969C88.5854 25.8 88.5787 25.8028 88.5723 25.8057C83.7452 27.9664 78.6378 31.687 76.6943 33.2744C76.6388 33.3197 76.5767 33.3577 76.5107 33.3857L74.9316 34.0576C74.879 34.08 74.8239 34.0974 74.7676 34.1074C71.2796 34.7311 68.8169 35.5064 67.165 36.21C66.3389 36.5619 65.7214 36.8926 65.2832 37.1738C64.8327 37.4629 64.6077 37.6766 64.5273 37.7783C64.4527 37.8727 64.3565 37.948 64.2471 37.998C63.2496 38.454 62.3215 39.105 61.6641 39.6338C61.7033 39.6543 61.7409 39.6791 61.7715 39.7129C62.109 40.0862 62.6003 40.7192 62.9922 41.4209C63.3749 42.1061 63.7058 42.9328 63.6211 43.667C63.6074 43.7849 63.5397 43.8897 63.4375 43.9502C63.3351 44.0107 63.2097 44.0196 63.0996 43.9746C62.9296 43.9052 62.3216 43.7256 61.4697 43.6807C61.3029 43.6719 61.1606 43.5556 61.1201 43.3936C61.0315 43.0391 60.9287 42.4499 60.8984 41.8076C60.8739 41.2869 60.8974 40.7059 61.0293 40.1787C60.9692 40.2347 60.9158 40.2854 60.8711 40.3301C60.8646 40.3366 60.8583 40.3433 60.8516 40.3496C60.8251 40.4539 60.8037 40.6206 60.7949 40.8428C60.7773 41.2882 60.8135 41.8133 60.8545 42.1592C60.8858 42.4237 60.7766 42.6851 60.5664 42.8486L59.9766 43.3076L59.7217 44.2344C59.692 44.3423 59.6383 44.4423 59.5654 44.5273L58.8936 45.3125L59.25 50.0283C59.2602 50.1634 59.2334 50.2993 59.1738 50.4209L58.541 51.7119C58.5767 51.8243 58.6628 51.9349 58.8242 52.0488C59.0493 52.2077 59.3387 52.3066 59.5342 52.3447L80.6582 54.3574C87.628 54.7747 94.6413 54.4337 97.2637 54.2119C97.5033 54.1918 97.7383 54.2865 97.8975 54.4668C99.1546 55.8923 100.239 56.6077 101.132 56.8965C102 57.1773 102.736 57.0714 103.375 56.7471C104.727 56.0609 105.736 54.3443 106.227 52.8594C106.313 52.5981 106.534 52.4038 106.805 52.3516L126.164 48.6084L126.192 48.6035C126.49 48.5576 126.789 48.6927 126.951 48.9492C127.8 50.2931 128.465 50.8867 128.922 51.0947C129.132 51.1905 129.282 51.1983 129.393 51.1787C129.508 51.1581 129.642 51.0963 129.796 50.9609C130.123 50.673 130.44 50.1362 130.708 49.418C130.969 48.7182 131.153 47.9278 131.259 47.2236L131.265 47.1904C131.298 47.0226 131.387 46.8702 131.518 46.7588C132.167 46.205 132.82 45.4726 133.159 45.0635C133.543 42.2825 133.535 40.1691 133.376 38.665C133.209 37.0942 132.884 36.253 132.717 35.9922C132.652 35.8908 132.611 35.7753 132.6 35.6553L132.505 34.6904C132.312 34.4294 132.178 34.1331 132.087 33.8916C132.015 33.7006 131.958 33.5116 131.916 33.3447L131.109 32.7842C131.024 32.7249 130.951 32.6488 130.896 32.5605L130.49 31.9053L129.498 31.4453C129.306 31.3565 129.16 31.1921 129.095 30.9912C129.029 30.7904 129.05 30.5714 129.152 30.3867L129.445 29.8604C129.574 29.6293 129.813 29.4812 130.077 29.4697C130.486 29.4519 130.764 29.4065 130.941 29.3623C130.956 29.0294 130.952 28.5587 130.923 28.0752C130.902 27.7322 130.869 27.4112 130.827 27.1611C130.818 27.1082 130.81 27.0607 130.801 27.0186C130.66 27.04 130.503 27.0882 130.399 27.1309C130.274 27.1825 130.136 27.1999 130.002 27.1807L128.173 26.9189L125.856 26.6621H123.852C123.686 26.6621 123.526 26.6075 123.394 26.5078C120.596 24.3933 117.192 23.9557 115.895 24C115.875 24.0007 115.854 24.0009 115.834 24L107.325 23.6211ZM93.8389 39.6172C94.0377 39.6282 94.2249 39.7105 94.3525 39.8809C94.4681 40.0351 94.5018 40.2183 94.5068 40.3721C94.5167 40.6762 94.4197 41.0452 94.2949 41.3984C94.0391 42.1224 93.5958 42.968 93.2686 43.5234C93.204 43.6329 93.0888 43.7029 92.9619 43.71L81.9658 44.3242C81.8523 44.3304 81.7419 44.2858 81.665 44.2021C81.588 44.1182 81.5523 44.0034 81.5684 43.8906C81.6073 43.6191 81.8752 42.5251 82.9941 41.6299C83.1808 41.4806 83.4857 41.356 83.8174 41.2461C84.1653 41.1308 84.5985 41.0146 85.083 40.9014C86.0531 40.6747 87.2555 40.4522 88.4531 40.2578C89.6517 40.0632 90.8519 39.8962 91.8193 39.7812C92.7685 39.6685 93.535 39.6004 93.8389 39.6172ZM93.7461 40.375C93.4802 40.3721 92.8165 40.4283 91.9082 40.5361C90.9521 40.6497 89.7633 40.815 88.5752 41.0078C87.3859 41.2009 86.2021 41.4205 85.2559 41.6416C84.7823 41.7523 84.374 41.8626 84.0566 41.9678C83.7239 42.078 83.5391 42.1683 83.4697 42.2236C82.9094 42.6719 82.614 43.176 82.4639 43.5352L92.7148 42.9629C93.014 42.4375 93.3697 41.7353 93.5781 41.1455C93.6974 40.8079 93.7521 40.5511 93.7471 40.3965C93.7468 40.3886 93.7466 40.3814 93.7461 40.375ZM61.6855 40.8076C61.6487 41.1159 61.6419 41.4458 61.6572 41.7715C61.6782 42.2161 61.7378 42.6324 61.7988 42.9424C62.2108 42.9789 62.5668 43.0418 62.8447 43.1074C62.7749 42.7102 62.5868 42.2541 62.3281 41.791C62.1293 41.4351 61.9016 41.0962 61.6855 40.8076ZM114.625 24.4229C115.374 24.3164 116.207 24.2686 116.826 24.4385L116.886 24.4561L117.093 24.5186L119.17 33.1094L105.515 35.4229L105.744 34.8057C106.272 33.385 107.238 31.1919 108.427 29.2197C109.021 28.2338 109.677 27.2936 110.367 26.5303C111.053 25.7718 111.799 25.1602 112.578 24.8721L112.589 24.8682L112.601 24.8643C113.069 24.7231 113.835 24.5351 114.625 24.4229ZM116.46 25.1348C116.011 25.0534 115.389 25.0816 114.732 25.1748C113.992 25.2799 113.27 25.4574 112.831 25.5889C112.222 25.8173 111.579 26.3246 110.932 27.04C110.285 27.7547 109.658 28.651 109.078 29.6123C108.08 31.2683 107.24 33.0914 106.696 34.4512L118.239 32.4961L116.46 25.1348ZM90.2227 25.8477C92.5557 25.4918 99.079 24.9988 106.669 25.8447L107.205 25.9053L106.969 26.3896C106.365 27.6281 104.428 30.7121 101.438 33.3232L101.321 33.4248L101.167 33.416C98.4756 33.2697 94.1521 33.0305 89.8857 32.9473C85.6071 32.8638 81.4284 32.9395 79.0059 33.4102C78.8302 33.4443 78.6545 33.3509 78.584 33.1865C78.5135 33.0221 78.5672 32.8313 78.7129 32.7275C80.0048 31.8075 82.1223 30.3621 84.2822 29.0146C86.4325 27.6732 88.6575 26.407 90.1504 25.8652L90.1855 25.8525L90.2227 25.8477ZM106.03 26.541C98.7868 25.7906 92.618 26.2557 90.374 26.5928C88.9652 27.1112 86.8211 28.3272 84.6846 29.6602C83.166 30.6075 81.6673 31.6037 80.4668 32.4287C82.9894 32.1535 86.442 32.12 89.9014 32.1875C94.1013 32.2694 98.3536 32.5016 101.053 32.6484C103.551 30.4361 105.273 27.8979 106.03 26.541Z" fill="url(#paint0_linear_104_120)"/>
<path d="M50.7887 72.0093H52.579V76.5962C52.5768 77.0318 52.4668 77.4152 52.249 77.7462C52.0334 78.0751 51.735 78.3321 51.3539 78.5172C50.9749 78.7002 50.5382 78.7917 50.0438 78.7917C49.6147 78.7917 49.2227 78.7176 48.8677 78.5695C48.5126 78.4192 48.2295 78.184 48.0182 77.8638C47.8069 77.5415 47.7024 77.1233 47.7046 76.6093H49.5211C49.5276 76.777 49.5559 76.9186 49.606 77.034C49.6583 77.1494 49.7302 77.2366 49.8216 77.2954C49.9153 77.352 50.0285 77.3803 50.1614 77.3803C50.2964 77.3803 50.4097 77.3509 50.5012 77.2921C50.5948 77.2333 50.6656 77.1462 50.7135 77.0307C50.7614 76.9131 50.7865 76.7683 50.7887 76.5962V72.0093ZM56.0143 78.7002H53.4399V72.0093H55.9882C56.6764 72.0093 57.271 72.1432 57.772 72.4111C58.2751 72.6769 58.6628 73.0602 58.9351 73.5611C59.2095 74.0599 59.3467 74.6578 59.3467 75.3547C59.3467 76.0517 59.2106 76.6507 58.9383 77.1516C58.6661 77.6504 58.2806 78.0337 57.7818 78.3016C57.283 78.5673 56.6939 78.7002 56.0143 78.7002ZM55.2564 77.1581H55.949C56.28 77.1581 56.5621 77.1048 56.7951 76.9981C57.0304 76.8913 57.209 76.7073 57.3309 76.4459C57.4551 76.1846 57.5172 75.8208 57.5172 75.3547C57.5172 74.8886 57.454 74.5249 57.3277 74.2635C57.2035 74.0022 57.0206 73.8181 56.7788 73.7114C56.5392 73.6047 56.2452 73.5513 55.8967 73.5513H55.2564V77.1581ZM60.1871 72.0093H62.4479L64.0031 75.7991H64.0815L65.6366 72.0093H67.8974V78.7002H66.1201V74.832H66.0678L64.5781 78.6479H63.5065L62.0167 74.8059H61.9644V78.7002H60.1871V72.0093ZM70.5911 78.7002V72.0093H72.4075V74.7144H72.499L74.5115 72.0093H76.6286L74.3678 74.9888L76.6808 78.7002H74.5115L73.0087 76.1911L72.4075 76.9752V78.7002H70.5911ZM77.5082 78.7002V73.682H79.3116V78.7002H77.5082ZM78.4099 73.1593C78.166 73.1593 77.9569 73.0787 77.7826 72.9175C77.6084 72.7564 77.5213 72.5625 77.5213 72.336C77.5213 72.1095 77.6084 71.9156 77.7826 71.7545C77.9569 71.5933 78.166 71.5127 78.4099 71.5127C78.656 71.5127 78.8651 71.5933 79.0372 71.7545C79.2114 71.9156 79.2985 72.1095 79.2985 72.336C79.2985 72.5625 79.2114 72.7564 79.0372 72.9175C78.8651 73.0787 78.656 73.1593 78.4099 73.1593ZM82.0339 75.8775V78.7002H80.2305V73.682H81.9424V74.636H81.9947C82.1036 74.318 82.2952 74.0686 82.5697 73.8878C82.8463 73.7071 83.1686 73.6167 83.5367 73.6167C83.8917 73.6167 84.1999 73.6983 84.4613 73.8617C84.7248 74.0229 84.9285 74.245 85.0722 74.5282C85.2182 74.8113 85.29 75.1348 85.2879 75.4985V78.7002H83.4844V75.8775C83.4866 75.6292 83.4235 75.4342 83.295 75.2927C83.1686 75.1511 82.9922 75.0803 82.7657 75.0803C82.6176 75.0803 82.488 75.113 82.3769 75.1783C82.268 75.2415 82.1842 75.333 82.1254 75.4528C82.0665 75.5704 82.0361 75.7119 82.0339 75.8775ZM88.5957 80.6866C88.0926 80.6866 87.6614 80.6147 87.302 80.4709C86.9448 80.3294 86.6671 80.1333 86.4689 79.8829C86.2729 79.6346 86.1629 79.3492 86.1389 79.0269H87.877C87.8944 79.1336 87.938 79.2197 88.0077 79.285C88.0774 79.3503 88.1667 79.3972 88.2756 79.4255C88.3866 79.456 88.5108 79.4712 88.648 79.4712C88.8811 79.4712 89.0738 79.4146 89.2263 79.3013C89.3809 79.1881 89.4582 78.9833 89.4582 78.6871V77.8377H89.406C89.3406 78.0076 89.2404 78.1524 89.1054 78.2722C88.9704 78.3898 88.8081 78.4802 88.6186 78.5434C88.4291 78.6044 88.2211 78.6349 87.9946 78.6349C87.6374 78.6349 87.3085 78.5521 87.008 78.3866C86.7096 78.221 86.47 77.9586 86.2892 77.5992C86.1106 77.2398 86.0213 76.7705 86.0213 76.1911C86.0213 75.5856 86.115 75.0934 86.3023 74.7144C86.4918 74.3354 86.7357 74.0577 87.0341 73.8813C87.3347 73.7049 87.6505 73.6167 87.9815 73.6167C88.2298 73.6167 88.4476 73.6602 88.6349 73.7474C88.8223 73.8323 88.9791 73.9466 89.1054 74.0904C89.2317 74.232 89.3276 74.3877 89.3929 74.5576H89.4321V73.682H91.2355V78.6871C91.2355 79.1118 91.1255 79.4723 90.9055 79.7685C90.6877 80.0669 90.3806 80.2945 89.9842 80.4513C89.5878 80.6081 89.125 80.6866 88.5957 80.6866ZM88.6611 77.3542C88.8266 77.3542 88.9682 77.3084 89.0858 77.217C89.2056 77.1233 89.2971 76.9904 89.3602 76.8184C89.4256 76.6441 89.4582 76.435 89.4582 76.1911C89.4582 75.9428 89.4256 75.7305 89.3602 75.554C89.2971 75.3754 89.2056 75.2393 89.0858 75.1456C88.9682 75.0498 88.8266 75.0019 88.6611 75.0019C88.4955 75.0019 88.354 75.0498 88.2364 75.1456C88.1209 75.2393 88.0316 75.3754 87.9685 75.554C87.9075 75.7305 87.877 75.9428 87.877 76.1911C87.877 76.4394 87.9075 76.6507 87.9685 76.8249C88.0316 76.997 88.1209 77.1287 88.2364 77.2202C88.354 77.3095 88.4955 77.3542 88.6611 77.3542ZM95.6975 78.7002H93.7373L95.9458 72.0093H98.4287L100.637 78.7002H98.677L97.2134 73.8519H97.1611L95.6975 78.7002ZM95.3316 76.0604H99.0168V77.4195H95.3316V76.0604ZM104.562 76.5047V73.682H106.365V78.7002H104.653V77.7462H104.601C104.492 78.0664 104.302 78.3169 104.029 78.4976C103.757 78.6762 103.434 78.7655 103.059 78.7655C102.708 78.7655 102.401 78.6849 102.138 78.5238C101.876 78.3626 101.673 78.1404 101.527 77.8573C101.383 77.5742 101.31 77.2496 101.308 76.8837V73.682H103.111V76.5047C103.113 76.753 103.177 76.948 103.301 77.0895C103.427 77.2311 103.603 77.3019 103.83 77.3019C103.98 77.3019 104.11 77.2703 104.219 77.2072C104.33 77.1418 104.415 77.0503 104.474 76.9327C104.535 76.8129 104.564 76.6703 104.562 76.5047ZM110.275 73.682V74.9888H106.969V73.682H110.275ZM107.609 72.4797H109.413V77.0863C109.413 77.156 109.425 77.2148 109.448 77.2627C109.472 77.3084 109.509 77.3433 109.56 77.3672C109.61 77.389 109.674 77.3999 109.752 77.3999C109.807 77.3999 109.87 77.3934 109.942 77.3803C110.016 77.3672 110.07 77.3564 110.105 77.3476L110.367 78.6153C110.286 78.6392 110.17 78.6686 110.02 78.7035C109.872 78.7383 109.696 78.7612 109.491 78.7721C109.077 78.7939 108.73 78.7514 108.449 78.6447C108.168 78.5358 107.957 78.3648 107.815 78.1317C107.673 77.8987 107.605 77.6068 107.609 77.2562V72.4797ZM113.375 78.7917C112.83 78.7917 112.364 78.6839 111.976 78.4682C111.589 78.2504 111.291 77.9477 111.084 77.56C110.878 77.1701 110.774 76.7182 110.774 76.2042C110.774 75.6902 110.878 75.2393 111.084 74.8516C111.291 74.4617 111.589 74.159 111.976 73.9434C112.364 73.7256 112.83 73.6167 113.375 73.6167C113.919 73.6167 114.385 73.7256 114.773 73.9434C115.161 74.159 115.458 74.4617 115.665 74.8516C115.872 75.2393 115.975 75.6902 115.975 76.2042C115.975 76.7182 115.872 77.1701 115.665 77.56C115.458 77.9477 115.161 78.2504 114.773 78.4682C114.385 78.6839 113.919 78.7917 113.375 78.7917ZM113.388 77.4587C113.54 77.4587 113.672 77.4075 113.783 77.3052C113.894 77.2028 113.98 77.0569 114.041 76.8674C114.102 76.6779 114.133 76.4525 114.133 76.1911C114.133 75.9276 114.102 75.7021 114.041 75.5148C113.98 75.3253 113.894 75.1794 113.783 75.077C113.672 74.9747 113.54 74.9235 113.388 74.9235C113.227 74.9235 113.088 74.9747 112.973 75.077C112.857 75.1794 112.769 75.3253 112.708 75.5148C112.647 75.7021 112.617 75.9276 112.617 76.1911C112.617 76.4525 112.647 76.6779 112.708 76.8674C112.769 77.0569 112.857 77.2028 112.973 77.3052C113.088 77.4075 113.227 77.4587 113.388 77.4587ZM116.707 80.582V73.682H118.497V74.5576H118.537C118.602 74.3877 118.698 74.232 118.824 74.0904C118.95 73.9466 119.107 73.8323 119.295 73.7474C119.482 73.6602 119.7 73.6167 119.948 73.6167C120.279 73.6167 120.594 73.7049 120.892 73.8813C121.193 74.0577 121.437 74.3354 121.624 74.7144C121.813 75.0934 121.908 75.5856 121.908 76.1911C121.908 76.7705 121.818 77.2507 121.637 77.6319C121.458 78.013 121.219 78.2973 120.918 78.4846C120.62 78.6719 120.292 78.7655 119.935 78.7655C119.7 78.7655 119.489 78.7274 119.304 78.6512C119.121 78.5728 118.965 78.4671 118.834 78.3343C118.705 78.1992 118.606 78.0468 118.537 77.8769H118.51V80.582H116.707ZM118.471 76.1911C118.471 76.435 118.503 76.6463 118.566 76.8249C118.631 77.0013 118.723 77.1385 118.84 77.2366C118.96 77.3324 119.103 77.3803 119.268 77.3803C119.434 77.3803 119.574 77.3335 119.69 77.2398C119.807 77.144 119.897 77.0079 119.958 76.8314C120.021 76.6528 120.052 76.4394 120.052 76.1911C120.052 75.9428 120.021 75.7305 119.958 75.554C119.897 75.3754 119.807 75.2393 119.69 75.1456C119.574 75.0498 119.434 75.0019 119.268 75.0019C119.103 75.0019 118.96 75.0498 118.84 75.1456C118.723 75.2393 118.631 75.3754 118.566 75.554C118.503 75.7305 118.471 75.9428 118.471 76.1911ZM125.068 78.7917C124.532 78.7917 124.071 78.6893 123.683 78.4846C123.297 78.2777 123 77.9814 122.791 77.5959C122.584 77.2082 122.481 76.7443 122.481 76.2042C122.481 75.6858 122.585 75.2328 122.794 74.8451C123.003 74.4574 123.299 74.1557 123.68 73.9401C124.061 73.7245 124.511 73.6167 125.029 73.6167C125.408 73.6167 125.751 73.6755 126.058 73.7931C126.365 73.9107 126.628 74.0817 126.845 74.306C127.063 74.5282 127.231 74.7983 127.349 75.1162C127.466 75.4342 127.525 75.7925 127.525 76.1911V76.6093H123.043V75.6161H125.865C125.863 75.4724 125.826 75.346 125.754 75.2371C125.685 75.126 125.59 75.04 125.47 74.979C125.352 74.9159 125.218 74.8843 125.068 74.8843C124.922 74.8843 124.788 74.9159 124.666 74.979C124.544 75.04 124.446 75.125 124.372 75.2339C124.3 75.3428 124.262 75.4702 124.258 75.6161V76.6877C124.258 76.8489 124.292 76.9926 124.359 77.1189C124.427 77.2453 124.524 77.3444 124.65 77.4162C124.776 77.4881 124.929 77.5241 125.107 77.5241C125.232 77.5241 125.345 77.5066 125.447 77.4718C125.552 77.4369 125.641 77.3868 125.715 77.3215C125.789 77.254 125.844 77.1734 125.878 77.0797H127.525C127.468 77.4282 127.334 77.731 127.123 77.988C126.912 78.2428 126.632 78.441 126.284 78.5826C125.937 78.722 125.532 78.7917 125.068 78.7917ZM130.679 78.7917C130.134 78.7917 129.668 78.6839 129.28 78.4682C128.893 78.2504 128.595 77.9477 128.388 77.56C128.181 77.1701 128.078 76.7182 128.078 76.2042C128.078 75.6902 128.181 75.2393 128.388 74.8516C128.595 74.4617 128.893 74.159 129.28 73.9434C129.668 73.7256 130.134 73.6167 130.679 73.6167C131.171 73.6167 131.597 73.706 131.956 73.8846C132.318 74.061 132.597 74.3115 132.796 74.636C132.994 74.9583 133.094 75.3373 133.096 75.7729H131.423C131.399 75.5094 131.323 75.309 131.195 75.1718C131.068 75.0324 130.905 74.9627 130.705 74.9627C130.548 74.9627 130.411 75.0084 130.293 75.0999C130.175 75.1892 130.084 75.3253 130.019 75.5083C129.953 75.6891 129.921 75.9167 129.921 76.1911C129.921 76.4655 129.953 76.6942 130.019 76.8772C130.084 77.058 130.175 77.1941 130.293 77.2856C130.411 77.3749 130.548 77.4195 130.705 77.4195C130.838 77.4195 130.955 77.389 131.058 77.328C131.16 77.2649 131.243 77.1734 131.306 77.0536C131.371 76.9316 131.41 76.7835 131.423 76.6093H133.096C133.09 77.0514 132.988 77.4369 132.792 77.7658C132.596 78.0925 132.319 78.3452 131.959 78.5238C131.602 78.7024 131.175 78.7917 130.679 78.7917ZM130.378 78.6741H131.018L130.966 78.9746C131.225 79.0138 131.427 79.1053 131.57 79.2491C131.714 79.3928 131.787 79.5714 131.789 79.7849C131.794 80.1377 131.621 80.4154 131.27 80.618C130.921 80.8205 130.441 80.9218 129.829 80.9218V80.2292C130.151 80.2292 130.398 80.1943 130.567 80.1246C130.737 80.0571 130.827 79.9569 130.835 79.8241C130.844 79.7021 130.796 79.6008 130.692 79.5202C130.589 79.4418 130.432 79.3863 130.221 79.3536L130.378 78.6741ZM135.239 78.7786C134.918 78.7786 134.635 78.7263 134.389 78.6218C134.145 78.5151 133.953 78.3539 133.814 78.1383C133.675 77.9226 133.605 77.6482 133.605 77.315C133.605 77.0405 133.652 76.8064 133.745 76.6126C133.839 76.4165 133.97 76.2564 134.138 76.1323C134.305 76.0081 134.5 75.9134 134.722 75.8481C134.947 75.7827 135.188 75.7403 135.448 75.7206C135.729 75.6989 135.954 75.6727 136.124 75.6422C136.296 75.6096 136.42 75.5649 136.496 75.5083C136.573 75.4495 136.611 75.3722 136.611 75.2763V75.2633C136.611 75.1326 136.561 75.0324 136.46 74.9627C136.36 74.893 136.232 74.8581 136.075 74.8581C135.903 74.8581 135.762 74.8963 135.653 74.9725C135.547 75.0465 135.482 75.1609 135.461 75.3155H133.801C133.823 75.0106 133.92 74.7296 134.092 74.4726C134.266 74.2135 134.52 74.0065 134.853 73.8519C135.186 73.6951 135.602 73.6167 136.101 73.6167C136.46 73.6167 136.783 73.6591 137.068 73.7441C137.353 73.8269 137.596 73.9434 137.797 74.0937C137.997 74.2418 138.149 74.416 138.254 74.6164C138.361 74.8146 138.414 75.0302 138.414 75.2633V78.7002H136.728V77.9945H136.689C136.589 78.1818 136.467 78.3332 136.323 78.4486C136.182 78.5641 136.019 78.6479 135.836 78.7002C135.656 78.7525 135.456 78.7786 135.239 78.7786ZM135.827 77.6417C135.964 77.6417 136.092 77.6134 136.212 77.5567C136.334 77.5001 136.433 77.4184 136.509 77.3117C136.586 77.205 136.624 77.0754 136.624 76.9229V76.5047C136.576 76.5243 136.525 76.5429 136.47 76.5603C136.418 76.5777 136.361 76.594 136.3 76.6093C136.242 76.6245 136.178 76.6387 136.111 76.6518C136.045 76.6648 135.977 76.6768 135.905 76.6877C135.766 76.7095 135.651 76.7454 135.562 76.7955C135.475 76.8434 135.41 76.9033 135.366 76.9752C135.325 77.0449 135.304 77.1233 135.304 77.2104C135.304 77.3498 135.353 77.4565 135.451 77.5306C135.549 77.6046 135.674 77.6417 135.827 77.6417ZM143.863 75.3155H142.203C142.194 75.2132 142.158 75.125 142.095 75.0509C142.032 74.9769 141.95 74.9202 141.85 74.881C141.752 74.8396 141.643 74.8189 141.524 74.8189C141.369 74.8189 141.236 74.8473 141.125 74.9039C141.014 74.9605 140.959 75.0411 140.962 75.1456C140.959 75.2197 140.991 75.2883 141.056 75.3515C141.124 75.4146 141.253 75.4636 141.445 75.4985L142.464 75.6814C142.978 75.7751 143.361 75.933 143.611 76.1552C143.864 76.3751 143.991 76.6703 143.993 77.0405C143.991 77.3977 143.884 77.7081 143.673 77.9716C143.464 78.233 143.178 78.4356 142.814 78.5793C142.452 78.7209 142.04 78.7917 141.576 78.7917C140.809 78.7917 140.209 78.6349 139.776 78.3212C139.344 78.0076 139.104 77.5938 139.054 77.0797H140.844C140.868 77.2387 140.946 77.3618 141.079 77.4489C141.214 77.5339 141.384 77.5763 141.589 77.5763C141.754 77.5763 141.891 77.548 141.997 77.4914C142.106 77.4348 142.162 77.3542 142.164 77.2496C142.162 77.1538 142.114 77.0776 142.02 77.0209C141.929 76.9643 141.785 76.9186 141.589 76.8837L140.7 76.7269C140.188 76.6376 139.805 76.4677 139.55 76.2172C139.295 75.9668 139.169 75.6444 139.171 75.2502C139.169 74.9017 139.261 74.6066 139.446 74.3648C139.633 74.1209 139.9 73.9358 140.246 73.8094C140.595 73.6809 141.007 73.6167 141.484 73.6167C142.21 73.6167 142.781 73.767 143.2 74.0675C143.62 74.3681 143.841 74.7841 143.863 75.3155Z" fill="url(#paint1_linear_104_120)"/>
<defs>
<linearGradient id="paint0_linear_104_120" x1="57" y1="40.2996" x2="135" y2="40.2996" gradientUnits="userSpaceOnUse">
<stop stop-color="white"/>
<stop offset="0.451923" stop-color="#E01313" stop-opacity="0.75"/>
<stop offset="0.653846" stop-color="#E01313" stop-opacity="0.75"/>
<stop offset="1" stop-color="white"/>
</linearGradient>
<linearGradient id="paint1_linear_104_120" x1="47.6" y1="75.2002" x2="144.6" y2="75.2002" gradientUnits="userSpaceOnUse">
<stop stop-color="white"/>
<stop offset="1" stop-color="#666666"/>
</linearGradient>
</defs>
</svg>
