<svg width="21" height="15" viewBox="0 0 21 15" fill="none" xmlns="http://www.w3.org/2000/svg">
<path d="M17.5 12.1667H19.5C20.1 12.1667 20.5 11.7 20.5 11V7.5C20.5 6.45 19.8 5.51667 19 5.28333C17.2 4.7 14.5 4 14.5 4C14.5 4 13.2 2.36667 12.3 1.31667C11.8 0.85 11.2 0.5 10.5 0.5H3.5C2.9 0.5 2.4 0.966667 2.1 1.55L0.7 4.93333C0.56758 5.38393 0.5 5.85699 0.5 6.33333V11C0.5 11.7 0.9 12.1667 1.5 12.1667H3.5" stroke="#666666" stroke-linecap="round" stroke-linejoin="round"/>
<path d="M5.49854 14.4997C6.60311 14.4997 7.49854 13.455 7.49854 12.1663C7.49854 10.8777 6.60311 9.83301 5.49854 9.83301C4.39397 9.83301 3.49854 10.8777 3.49854 12.1663C3.49854 13.455 4.39397 14.4997 5.49854 14.4997Z" stroke="#666666" stroke-linecap="round" stroke-linejoin="round"/>
<path d="M7.50146 12.167H13.5015" stroke="#666666" stroke-linecap="round" stroke-linejoin="round"/>
<path d="M15.4995 14.4997C16.6041 14.4997 17.4995 13.455 17.4995 12.1663C17.4995 10.8777 16.6041 9.83301 15.4995 9.83301C14.3949 9.83301 13.4995 10.8777 13.4995 12.1663C13.4995 13.455 14.3949 14.4997 15.4995 14.4997Z" stroke="#666666" stroke-linecap="round" stroke-linejoin="round"/>
</svg>
