<svg width="23" height="17" viewBox="0 0 23 17" fill="none" xmlns="http://www.w3.org/2000/svg">
<path d="M19.2 13.8336H21.4C22.06 13.8336 22.5 13.3003 22.5 12.5003V8.50019C22.5 7.30016 21.73 6.23347 20.85 5.96679C18.87 5.30011 15.9 4.50009 15.9 4.50009C15.9 4.50009 14.47 2.63338 13.48 1.43335C12.93 0.900009 12.27 0.5 11.5 0.5H3.8C3.14 0.5 2.59 1.03335 2.26 1.70003L0.72 5.56678C0.574338 6.08176 0.5 6.62242 0.5 7.16682V12.5003C0.5 13.3003 0.94 13.8336 1.6 13.8336H3.8" stroke="#666666" stroke-linecap="round" stroke-linejoin="round"/>
<path d="M5.99834 16.5004C7.21337 16.5004 8.19834 15.3065 8.19834 13.8337C8.19834 12.3609 7.21337 11.167 5.99834 11.167C4.78331 11.167 3.79834 12.3609 3.79834 13.8337C3.79834 15.3065 4.78331 16.5004 5.99834 16.5004Z" stroke="#666666" stroke-linecap="round" stroke-linejoin="round"/>
<path d="M8.20166 13.834H14.8017" stroke="#666666" stroke-linecap="round" stroke-linejoin="round"/>
<path d="M16.9993 16.5004C18.2143 16.5004 19.1993 15.3065 19.1993 13.8337C19.1993 12.3609 18.2143 11.167 16.9993 11.167C15.7843 11.167 14.7993 12.3609 14.7993 13.8337C14.7993 15.3065 15.7843 16.5004 16.9993 16.5004Z" stroke="#666666" stroke-linecap="round" stroke-linejoin="round"/>
</svg>
