<svg width="14" height="14" viewBox="0 0 14 14" fill="none" xmlns="http://www.w3.org/2000/svg">
<path fill-rule="evenodd" clip-rule="evenodd" d="M7 14C8.85652 14 10.637 13.2625 11.9497 11.9497C13.2625 10.637 14 8.85652 14 7C14 5.14348 13.2625 3.36301 11.9497 2.05025C10.637 0.737498 8.85652 0 7 0C5.14348 0 3.36301 0.737498 2.05025 2.05025C0.737498 3.36301 0 5.14348 0 7C0 8.85652 0.737498 10.637 2.05025 11.9497C3.36301 13.2625 5.14348 14 7 14ZM10.3749 5.41712C10.4255 5.34738 10.462 5.26833 10.4821 5.1845C10.5022 5.10067 10.5057 5.01369 10.4922 4.92854C10.4787 4.84339 10.4486 4.76173 10.4035 4.68822C10.3585 4.61471 10.2994 4.5508 10.2296 4.50012C10.1599 4.44945 10.0808 4.41301 9.997 4.39289C9.91317 4.37276 9.82619 4.36935 9.74104 4.38283C9.65589 4.39632 9.57423 4.42645 9.50072 4.4715C9.42721 4.51654 9.3633 4.57563 9.31262 4.64538L6.265 8.83663L4.62 7.19162C4.55943 7.12898 4.487 7.07902 4.40691 7.04466C4.32683 7.01031 4.24071 6.99224 4.15358 6.99153C4.06644 6.99081 3.98003 7.00746 3.8994 7.04049C3.81876 7.07353 3.74552 7.12229 3.68393 7.18394C3.62234 7.24558 3.57365 7.31888 3.54069 7.39954C3.50773 7.48021 3.49116 7.56663 3.49196 7.65376C3.49276 7.7409 3.5109 7.827 3.54533 7.90705C3.57977 7.9871 3.62979 8.05949 3.6925 8.12L5.88 10.3075C5.94705 10.3746 6.02784 10.4263 6.11681 10.4592C6.20579 10.4921 6.30083 10.5052 6.39538 10.4978C6.48994 10.4904 6.58177 10.4626 6.66455 10.4163C6.74733 10.37 6.81908 10.3063 6.87488 10.2296L10.3749 5.41712Z" fill="black"/>
</svg>
