<svg width="24" height="24" viewBox="0 0 24 24" fill="none" xmlns="http://www.w3.org/2000/svg">
<path d="M3.50741 24H18.5392C19.4708 23.9973 20.3634 23.6247 21.021 22.964C21.6785 22.3032 22.0474 21.4082 22.0466 20.4755V12.9137C22.0466 12.6476 21.941 12.3924 21.7531 12.2043C21.5651 12.0161 21.3102 11.9104 21.0445 11.9104C20.7787 11.9104 20.5238 12.0161 20.3359 12.2043C20.1479 12.3924 20.0423 12.6476 20.0423 12.9137V20.4755C20.0437 20.8762 19.8861 21.2611 19.6043 21.5457C19.3225 21.8303 18.9394 21.9913 18.5392 21.9934H3.50741C3.10714 21.9913 2.72406 21.8303 2.44224 21.5457C2.16043 21.2611 2.0029 20.8762 2.00424 20.4755V5.45227C2.0029 5.05153 2.16043 4.66663 2.44224 4.38204C2.72406 4.09745 3.10714 3.93643 3.50741 3.9343H11.0233C11.2891 3.9343 11.544 3.8286 11.7319 3.64045C11.9198 3.4523 12.0254 3.19711 12.0254 2.93102C12.0254 2.66493 11.9198 2.40974 11.7319 2.22159C11.544 2.03344 11.2891 1.92773 11.0233 1.92773H3.50741C2.57575 1.93039 1.68319 2.30299 1.02563 2.96377C0.368059 3.62455 -0.000798779 4.51952 1.29885e-06 5.45227V20.4755C-0.000798779 21.4082 0.368059 22.3032 1.02563 22.964C1.68319 23.6247 2.57575 23.9973 3.50741 24Z" fill="#F9B11F"/>
<path d="M9.47428 10.4999L8.68361 14.1257C8.64782 14.2902 8.65394 14.461 8.7014 14.6225C8.74886 14.784 8.83613 14.9309 8.95519 15.0498C9.07588 15.1656 9.22269 15.2506 9.38318 15.2976C9.54367 15.3446 9.71311 15.3522 9.87713 15.3196L13.4908 14.526C13.6784 14.4848 13.8502 14.3904 13.9858 14.2542L23.1191 5.11021C23.3983 4.83072 23.6198 4.49889 23.7709 4.13368C23.922 3.76848 23.9998 3.37705 23.9998 2.98174C23.9998 2.58644 23.922 2.19501 23.7709 1.82981C23.6198 1.4646 23.3983 1.13277 23.1191 0.853276C22.5467 0.305619 21.7854 0 20.9936 0C20.2018 0 19.4406 0.305619 18.8681 0.853276L9.74886 10.0062C9.61199 10.1411 9.51669 10.3124 9.47428 10.4999ZM20.2851 2.27292C20.4758 2.09007 20.7296 1.98799 20.9936 1.98799C21.2576 1.98799 21.5115 2.09007 21.7021 2.27292C21.8875 2.46217 21.9913 2.71667 21.9913 2.98174C21.9913 3.24682 21.8875 3.50132 21.7021 3.69057L20.9936 4.39989L19.5766 2.98124L20.2851 2.27292ZM11.3663 11.2162L18.1546 4.4029L19.5576 5.81452L12.7662 12.6298L10.9674 13.0251L11.3663 11.2162Z" fill="#F9B11F"/>
</svg>
