<svg width="21" height="13" viewBox="0 0 21 13" fill="none" xmlns="http://www.w3.org/2000/svg">
<path d="M17.5 10.5H19.5C20.1 10.5 20.5 10.1 20.5 9.5V6.5C20.5 5.6 19.8 4.8 19 4.6C17.2 4.1 14.5 3.5 14.5 3.5C14.5 3.5 13.2 2.1 12.3 1.2C11.8 0.8 11.2 0.5 10.5 0.5H3.5C2.9 0.5 2.4 0.9 2.1 1.4L0.7 4.3C0.56758 4.68623 0.5 5.0917 0.5 5.5V9.5C0.5 10.1 0.9 10.5 1.5 10.5H3.5" stroke="#666666" stroke-linecap="round" stroke-linejoin="round"/>
<path d="M5.5 12.5C6.60457 12.5 7.5 11.6046 7.5 10.5C7.5 9.39543 6.60457 8.5 5.5 8.5C4.39543 8.5 3.5 9.39543 3.5 10.5C3.5 11.6046 4.39543 12.5 5.5 12.5Z" stroke="#666666" stroke-linecap="round" stroke-linejoin="round"/>
<path d="M7.5 10.5H13.5" stroke="#666666" stroke-linecap="round" stroke-linejoin="round"/>
<path d="M15.5 12.5C16.6046 12.5 17.5 11.6046 17.5 10.5C17.5 9.39543 16.6046 8.5 15.5 8.5C14.3954 8.5 13.5 9.39543 13.5 10.5C13.5 11.6046 14.3954 12.5 15.5 12.5Z" stroke="#666666" stroke-linecap="round" stroke-linejoin="round"/>
</svg>
