<svg width="20" height="24" viewBox="0 0 20 24" fill="none" xmlns="http://www.w3.org/2000/svg">
<path d="M18.6107 8.57274L18.1906 20.2727C18.1548 21.2747 17.6961 22.2244 16.9119 22.9204C16.1276 23.6163 15.0795 24.0035 13.99 24H6.00893C4.92016 24.0036 3.87267 23.6168 3.08852 22.9217C2.30437 22.2267 1.8452 21.2779 1.80835 20.2765L1.38829 8.57274C1.3791 8.31644 1.48093 8.06728 1.67137 7.88007C1.86181 7.69285 2.12527 7.58293 2.40378 7.57447C2.6823 7.56601 2.95306 7.65972 3.15649 7.83497C3.35993 8.01022 3.47939 8.25266 3.48858 8.50896L3.90864 20.2118C3.92955 20.7114 4.16003 21.1841 4.55167 21.5306C4.94331 21.8771 5.46563 22.0705 6.00893 22.0701H13.99C14.534 22.0705 15.0569 21.8765 15.4487 21.5292C15.8404 21.1819 16.0705 20.7082 16.0903 20.2079L16.5104 8.50896C16.5196 8.25266 16.639 8.01022 16.8425 7.83497C17.0459 7.65972 17.3167 7.56601 17.5952 7.57447C17.8737 7.58293 18.1371 7.69285 18.3276 7.88007C18.518 8.06728 18.6199 8.31644 18.6107 8.57274ZM20 4.67921C20 4.9355 19.8894 5.18131 19.6924 5.36254C19.4955 5.54377 19.2284 5.64558 18.9499 5.64558H1.05014C0.771629 5.64558 0.50452 5.54377 0.30758 5.36254C0.11064 5.18131 0 4.9355 0 4.67921C0 4.42291 0.11064 4.17711 0.30758 3.99587C0.50452 3.81464 0.771629 3.71283 1.05014 3.71283H4.30559C4.63833 3.71365 4.9595 3.60053 5.20659 3.39547C5.45369 3.19041 5.60905 2.90808 5.64243 2.60343C5.71992 1.88878 6.08376 1.22627 6.66306 0.744997C7.24235 0.263719 7.99561 -0.00185864 8.77606 9.79218e-06H11.2229C12.0033 -0.00185864 12.7566 0.263719 13.3359 0.744997C13.9152 1.22627 14.279 1.88878 14.3565 2.60343C14.3899 2.90808 14.5453 3.19041 14.7924 3.39547C15.0395 3.60053 15.3606 3.71365 15.6934 3.71283H18.9488C19.2273 3.71283 19.4944 3.81464 19.6914 3.99587C19.8883 4.17711 19.9989 4.42291 19.9989 4.67921H20ZM7.46548 3.71283H12.5356C12.3976 3.42267 12.3073 3.11521 12.2678 2.80057C12.2418 2.56237 12.1206 2.34153 11.9277 2.18084C11.7349 2.02016 11.4841 1.93107 11.2239 1.93083H8.77711C8.51695 1.93107 8.26615 2.02016 8.0733 2.18084C7.88045 2.34153 7.75928 2.56237 7.73326 2.80057C7.69339 3.11526 7.60383 3.42272 7.46548 3.71283ZM8.52297 18.3544V10.1257C8.52297 9.86941 8.41233 9.6236 8.21539 9.44237C8.01845 9.26114 7.75134 9.15933 7.47283 9.15933C7.19431 9.15933 6.9272 9.26114 6.73026 9.44237C6.53332 9.6236 6.42268 9.86941 6.42268 10.1257V18.3583C6.42268 18.6146 6.53332 18.8604 6.73026 19.0416C6.9272 19.2228 7.19431 19.3246 7.47283 19.3246C7.75134 19.3246 8.01845 19.2228 8.21539 19.0416C8.41233 18.8604 8.52297 18.6146 8.52297 18.3583V18.3544ZM13.5784 18.3544V10.1257C13.5784 9.86941 13.4677 9.6236 13.2708 9.44237C13.0738 9.26114 12.8067 9.15933 12.5282 9.15933C12.2497 9.15933 11.9826 9.26114 11.7857 9.44237C11.5887 9.6236 11.4781 9.86941 11.4781 10.1257V18.3583C11.4781 18.6146 11.5887 18.8604 11.7857 19.0416C11.9826 19.2228 12.2497 19.3246 12.5282 19.3246C12.8067 19.3246 13.0738 19.2228 13.2708 19.0416C13.4677 18.8604 13.5784 18.6146 13.5784 18.3583V18.3544Z" fill="black"/>
</svg>
