<svg width="16" height="16" viewBox="0 0 16 16" fill="none" xmlns="http://www.w3.org/2000/svg">
<path d="M15.4995 11.7304V13.9885C15.5004 14.1981 15.4574 14.4056 15.3732 14.5977C15.2891 14.7898 15.1657 14.9622 15.0109 15.1039C14.8561 15.2456 14.6734 15.3535 14.4744 15.4207C14.2754 15.4878 14.0646 15.5128 13.8554 15.4939C11.5346 15.2422 9.30532 14.4508 7.34668 13.1831C5.52441 12.0274 3.97945 10.4855 2.8215 8.66689C1.5469 6.70324 0.753681 4.46756 0.506122 2.14096C0.487275 1.93282 0.512061 1.72303 0.578902 1.52497C0.645743 1.32691 0.753174 1.1449 0.894356 0.990549C1.03554 0.836194 1.20738 0.712869 1.39893 0.628425C1.59049 0.543982 1.79756 0.50027 2.00697 0.500073H4.26956C4.63558 0.496478 4.99041 0.625833 5.26793 0.864029C5.54546 1.10222 5.72672 1.43301 5.77795 1.79472C5.87345 2.51736 6.05055 3.22691 6.30589 3.90981C6.40736 4.17922 6.42932 4.47202 6.36917 4.7535C6.30902 5.03498 6.16928 5.29336 5.9665 5.49801L5.00867 6.45394C6.08231 8.33837 7.64568 9.89864 9.53385 10.9702L10.4917 10.0142C10.6967 9.81185 10.9556 9.67238 11.2377 9.61235C11.5197 9.55232 11.8131 9.57424 12.083 9.67551C12.7673 9.93033 13.4782 10.1071 14.2023 10.2024C14.5687 10.254 14.9033 10.4381 15.1424 10.7199C15.3816 11.0016 15.5087 11.3612 15.4995 11.7304Z" stroke="#666666" stroke-linecap="round" stroke-linejoin="round"/>
</svg>
