<svg width="100" height="48" viewBox="0 0 100 48" fill="none" xmlns="http://www.w3.org/2000/svg">
<rect width="100" height="48" fill="#252525"/>
<path d="M61.7207 7.22852C62.6253 7.2019 64.7571 7.48992 66.5732 8.83398H67.6328C67.6493 8.83399 67.6662 8.83505 67.6826 8.83691L69.0791 8.99609C69.0836 8.99661 69.0883 8.99641 69.0928 8.99707L70.0674 9.13965C70.1834 9.10018 70.3279 9.06311 70.4746 9.04883C70.577 9.03887 70.7043 9.03791 70.833 9.07031C70.9606 9.10246 71.1148 9.17473 71.2285 9.32812L71.2402 9.34375L71.252 9.36133C71.3109 9.4521 71.344 9.55292 71.3643 9.62402C71.3886 9.70978 71.4082 9.80534 71.4238 9.90137C71.4553 10.0944 71.4767 10.3226 71.4902 10.5479C71.5164 10.9851 71.516 11.483 71.4727 11.749C71.4628 11.8098 71.4405 11.868 71.4082 11.9199C71.3406 12.0284 71.2442 12.0937 71.1826 12.1299C71.1186 12.1675 71.0458 12.2008 70.9648 12.2285C70.9901 12.2539 71.0124 12.2824 71.0312 12.3135L71.293 12.7441L71.8379 13.1309L71.8467 13.1377C71.9404 13.2079 72.0047 13.3132 72.0244 13.4307C72.0373 13.5073 72.0692 13.647 72.1211 13.7881C72.1733 13.9298 72.2289 14.027 72.2705 14.0742L72.2783 14.083L72.292 14.0977C72.3574 14.1707 72.3987 14.2634 72.4082 14.3623L72.4668 14.9863C72.6576 15.349 72.8408 15.9897 72.9346 16.8936C73.0399 17.9094 73.0379 19.3014 72.7852 21.1035C72.7739 21.1835 72.7414 21.2588 72.6924 21.3223C72.5252 21.5388 72.1072 22.0388 71.6543 22.4561C71.5821 22.8856 71.4688 23.3581 71.3096 23.7949C71.1334 24.2781 70.8815 24.7711 70.5234 25.0938C70.3388 25.2601 70.1146 25.3913 69.8506 25.4395C69.5835 25.4881 69.3108 25.4455 69.0439 25.3213C68.5862 25.1081 68.1317 24.6492 67.6641 23.9453L56.7939 26.0947C56.4463 27.0324 55.7763 28.1832 54.7559 28.7129C54.1763 29.0136 53.497 29.1044 52.75 28.8574C52.0637 28.6303 51.3464 28.127 50.5977 27.2979C48.8733 27.4335 44.8731 27.6135 40.8906 27.3691C40.8855 27.3688 40.8801 27.3687 40.875 27.3682L28.3887 26.1504C28.3771 26.1493 28.365 26.1485 28.3535 26.1465C28.141 26.1083 27.8295 26.0061 27.5586 25.8105C27.2818 25.6107 27 25.2731 27 24.7773C27 24.7074 27.0158 24.638 27.0459 24.5752L27.4229 23.7881L27.208 20.8789C27.1991 20.758 27.2373 20.638 27.3145 20.5459L27.7666 20.0068L27.9297 19.4004C27.9553 19.3052 28.0108 19.2208 28.0869 19.1602L28.3584 18.9443C28.3427 18.7372 28.333 18.4941 28.3418 18.2676C28.3481 18.1041 28.3645 17.9263 28.4043 17.7705C28.4243 17.6925 28.4548 17.6013 28.5039 17.5156C28.5409 17.4511 28.5992 17.3722 28.6865 17.3086C29.0321 16.9648 29.8572 16.2609 30.8115 15.7959C30.9501 15.6446 31.1499 15.4837 31.4004 15.3193C31.7089 15.1169 32.1196 14.8942 32.6436 14.666C33.6834 14.2131 35.1871 13.7319 37.2705 13.3477L38.0967 12.9883C39.3076 11.9844 42.3423 9.73149 45.248 8.40039C45.8074 8.12664 47.4305 7.5963 49.8203 7.4248C52.7523 7.2144 52.1373 7.15908 56.666 7H56.7012L61.7207 7.22852ZM56.6787 7.91699C52.1899 8.07487 52.8451 8.12629 49.8828 8.33887C47.5637 8.5053 46.0552 9.0202 45.6309 9.22949C45.6272 9.23129 45.6238 9.23365 45.6201 9.23535C42.7733 10.5385 39.7603 12.782 38.6143 13.7393C38.5816 13.7666 38.5457 13.7897 38.5068 13.8066L37.5752 14.2119C37.5442 14.2254 37.5117 14.2351 37.4785 14.2412C35.4215 14.6173 33.9693 15.0855 32.9951 15.5098C32.5079 15.722 32.1432 15.9212 31.8848 16.0908C31.6194 16.265 31.4869 16.3937 31.4395 16.4551C31.3954 16.5121 31.3381 16.5577 31.2734 16.5879C30.6852 16.8629 30.1377 17.2553 29.75 17.5742C29.7732 17.5866 29.7954 17.6016 29.8135 17.6221C30.0125 17.8472 30.302 18.2291 30.5332 18.6523C30.7589 19.0656 30.9543 19.5641 30.9043 20.0068C30.8962 20.0779 30.8562 20.1413 30.7959 20.1777C30.7355 20.2141 30.6615 20.2195 30.5967 20.1924C30.4962 20.1505 30.1379 20.0427 29.6357 20.0156C29.5374 20.0103 29.4536 19.9395 29.4297 19.8418C29.3774 19.628 29.3167 19.2722 29.2988 18.8848C29.2844 18.5714 29.2976 18.2217 29.375 17.9043C29.3401 17.9375 29.3092 17.9675 29.2832 17.9941C29.2793 17.9981 29.2755 18.0021 29.2715 18.0059C29.2559 18.0687 29.2435 18.1695 29.2383 18.3037C29.2279 18.5723 29.2493 18.8891 29.2734 19.0977C29.2918 19.2571 29.2274 19.4151 29.1035 19.5137L28.7549 19.79L28.6055 20.3486C28.588 20.4136 28.5565 20.4742 28.5137 20.5254L28.1162 20.999L28.3271 23.8438C28.3331 23.925 28.3173 24.0069 28.2822 24.0801L27.9092 24.8584C27.9302 24.9261 27.9802 24.9929 28.0752 25.0615C28.208 25.1574 28.3788 25.2172 28.4941 25.2402L40.9521 26.4541C45.0625 26.7057 49.1986 26.4999 50.7451 26.3662C50.8865 26.354 51.0253 26.4108 51.1191 26.5195C51.8605 27.3792 52.4997 27.8112 53.0264 27.9854C53.5387 28.1547 53.9725 28.0902 54.3496 27.8945C55.147 27.4807 55.7421 26.4462 56.0312 25.5508C56.0822 25.3931 56.2126 25.2757 56.3721 25.2441L67.7891 22.9863L67.8057 22.9834C67.9814 22.9557 68.1574 23.0377 68.2529 23.1924C68.7532 24.0026 69.1457 24.3607 69.415 24.4863C69.5391 24.5441 69.6283 24.548 69.6934 24.5361C69.7614 24.5237 69.8402 24.4868 69.9307 24.4053C70.1233 24.2316 70.3108 23.9079 70.4688 23.4746C70.6226 23.0526 70.7313 22.576 70.7939 22.1514L70.7969 22.1309C70.8164 22.0298 70.8693 21.9382 70.9463 21.8711C71.3291 21.5371 71.7143 21.0954 71.9141 20.8486C72.1406 19.1716 72.1361 17.8973 72.042 16.9902C71.9437 16.0427 71.7522 15.5351 71.6533 15.3779C71.6149 15.3167 71.5909 15.2472 71.584 15.1748L71.5283 14.5928C71.4147 14.4354 71.3358 14.2569 71.2822 14.1113C71.2398 13.9961 71.2065 13.8819 71.1816 13.7812L70.7051 13.4434C70.6549 13.4077 70.6123 13.3617 70.5801 13.3086L70.3408 12.9141L69.7549 12.6367C69.6419 12.5831 69.5562 12.4834 69.5176 12.3623C69.479 12.2412 69.4914 12.1094 69.5518 11.998L69.7246 11.6797C69.8004 11.5407 69.9412 11.4513 70.0967 11.4443C70.338 11.4336 70.502 11.4065 70.6064 11.3799C70.6151 11.1791 70.6132 10.8951 70.5957 10.6035C70.5833 10.3968 70.5636 10.2035 70.5391 10.0527C70.5338 10.0207 70.5286 9.9913 70.5234 9.96582C70.4402 9.97876 70.3482 10.0085 70.2871 10.0342C70.2131 10.0653 70.132 10.076 70.0527 10.0645L68.9736 9.90625L67.6074 9.75098H66.4258C66.3282 9.75098 66.2331 9.71837 66.1553 9.6582C64.5054 8.38289 62.4977 8.11969 61.7324 8.14648C61.7207 8.14689 61.709 8.14604 61.6973 8.14551L56.6787 7.91699ZM48.7256 17.5645C48.8428 17.5711 48.953 17.6209 49.0283 17.7236C49.0963 17.8166 49.1162 17.9269 49.1191 18.0195C49.1249 18.2029 49.0677 18.4256 48.9941 18.6387C48.8433 19.0753 48.5817 19.585 48.3887 19.9199C48.3506 19.9859 48.2828 20.028 48.208 20.0322L41.7236 20.4033C41.6566 20.4071 41.5913 20.3797 41.5459 20.3291C41.5005 20.2785 41.4798 20.2096 41.4893 20.1416C41.5121 19.978 41.67 19.3183 42.3301 18.7783C42.4402 18.6883 42.6198 18.6122 42.8154 18.5459C43.0206 18.4764 43.2759 18.4071 43.5615 18.3389C44.1336 18.2022 44.8426 18.0674 45.5488 17.9502C46.2557 17.8329 46.9636 17.7324 47.5342 17.6631C48.0942 17.5951 48.5465 17.5543 48.7256 17.5645ZM48.6699 18.0215C48.5129 18.0198 48.1221 18.0532 47.5869 18.1182C47.023 18.1866 46.3219 18.287 45.6211 18.4033C44.9198 18.5197 44.2221 18.6518 43.6641 18.7852C43.3847 18.8519 43.1432 18.918 42.9561 18.9814C42.7604 19.0478 42.6515 19.1024 42.6104 19.1357C42.2799 19.406 42.1052 19.7102 42.0166 19.9268L48.0625 19.582C48.2389 19.2651 48.4484 18.8411 48.5713 18.4854C48.6416 18.2819 48.6739 18.1274 48.6709 18.0342C48.6707 18.0295 48.6702 18.0253 48.6699 18.0215ZM29.7627 18.2822C29.741 18.4681 29.7371 18.667 29.7461 18.8633C29.7584 19.1313 29.7941 19.3824 29.8301 19.5693C30.0728 19.5913 30.2824 19.6294 30.4463 19.6689C30.4051 19.4296 30.2949 19.155 30.1426 18.876C30.0253 18.6613 29.8901 18.4564 29.7627 18.2822ZM60.9844 8.40039C61.4262 8.33623 61.9173 8.30773 62.2822 8.41016L62.3164 8.4209L62.4395 8.45898L63.6641 13.6396L55.6113 15.0342L55.7461 14.6621C56.0574 13.8054 56.6271 12.4833 57.3281 11.2939C57.6786 10.6993 58.0654 10.1323 58.4727 9.67188C58.8772 9.2145 59.3169 8.84567 59.7764 8.67188L59.7832 8.66895L59.79 8.66699C60.0666 8.58188 60.5187 8.46806 60.9844 8.40039ZM62.0654 8.83008C61.8008 8.78112 61.4339 8.79826 61.0469 8.85449C60.6105 8.9179 60.1846 9.02523 59.9258 9.10449C59.5663 9.2423 59.1874 9.548 58.8057 9.97949C58.4245 10.4104 58.0546 10.9506 57.7129 11.5303C57.1242 12.529 56.628 13.6292 56.3076 14.4492L63.1152 13.2695L62.0654 8.83008ZM46.5928 9.25977C47.9685 9.04517 51.8157 8.74865 56.292 9.25879L56.6084 9.29492L56.4688 9.58691C56.1125 10.3338 54.9709 12.1939 53.207 13.7686L53.1387 13.8301L53.0479 13.8242C51.4606 13.736 48.9106 13.5922 46.3945 13.542C43.8711 13.4917 41.4062 13.5374 39.9775 13.8213C39.8743 13.8416 39.7712 13.7853 39.7295 13.6865C39.6879 13.5875 39.719 13.4718 39.8047 13.4092C40.5666 12.8543 41.816 11.9826 43.0898 11.1699C44.3577 10.3611 45.6694 9.59831 46.5498 9.27148L46.5713 9.26367L46.5928 9.25977ZM55.915 9.67871C51.6434 9.22617 48.006 9.50669 46.6826 9.70996C45.8518 10.0226 44.5872 10.7557 43.3271 11.5596C42.4316 12.1309 41.5478 12.732 40.8398 13.2295C42.3275 13.0635 44.3632 13.0423 46.4033 13.083C48.8804 13.1324 51.3886 13.2728 52.9805 13.3613C54.4536 12.0273 55.4684 10.497 55.915 9.67871Z" fill="url(#paint0_linear_60_54)"/>
<path d="M20.0795 34.6364H21.2472V37.6278C21.2457 37.9119 21.174 38.1619 21.032 38.3778C20.8913 38.5923 20.6967 38.7599 20.4482 38.8807C20.201 39 19.9162 39.0597 19.5938 39.0597C19.3139 39.0597 19.0582 39.0114 18.8267 38.9148C18.5952 38.8168 18.4105 38.6634 18.2727 38.4545C18.1349 38.2443 18.0668 37.9716 18.0682 37.6364H19.2528C19.2571 37.7457 19.2756 37.8381 19.3082 37.9134C19.3423 37.9886 19.3892 38.0455 19.4489 38.0838C19.5099 38.1207 19.5838 38.1392 19.6705 38.1392C19.7585 38.1392 19.8324 38.12 19.892 38.0817C19.9531 38.0433 19.9993 37.9865 20.0305 37.9112C20.0618 37.8345 20.0781 37.7401 20.0795 37.6278V34.6364ZM23.4876 39H21.8086V34.6364H23.4705C23.9194 34.6364 24.3072 34.7237 24.6339 34.8984C24.962 35.0717 25.2148 35.3217 25.3924 35.6484C25.5714 35.9737 25.6609 36.3636 25.6609 36.8182C25.6609 37.2727 25.5721 37.6634 25.3945 37.9901C25.217 38.3153 24.9656 38.5653 24.6403 38.7401C24.315 38.9134 23.9308 39 23.4876 39ZM22.9933 37.9943H23.445C23.6609 37.9943 23.8448 37.9595 23.9968 37.8899C24.1502 37.8203 24.2667 37.7003 24.3462 37.5298C24.4272 37.3594 24.4677 37.1222 24.4677 36.8182C24.4677 36.5142 24.4265 36.277 24.3441 36.1065C24.2631 35.9361 24.1438 35.8161 23.9862 35.7464C23.8299 35.6768 23.6381 35.642 23.4109 35.642H22.9933V37.9943ZM26.209 34.6364H27.6834L28.6976 37.108H28.7488L29.763 34.6364H31.2374V39H30.0783V36.4773H30.0442L29.0726 38.9659H28.3738L27.4022 36.4602H27.3681V39H26.209V34.6364ZM32.9941 39V34.6364H34.1788V36.4006H34.2385L35.551 34.6364H36.9316L35.4572 36.5795L36.9657 39H35.551L34.5708 37.3636L34.1788 37.875V39H32.9941ZM37.5053 39V35.7273H38.6815V39H37.5053ZM38.0934 35.3864C37.9343 35.3864 37.7979 35.3338 37.6843 35.2287C37.5707 35.1236 37.5138 34.9972 37.5138 34.8494C37.5138 34.7017 37.5707 34.5753 37.6843 34.4702C37.7979 34.3651 37.9343 34.3125 38.0934 34.3125C38.2539 34.3125 38.3903 34.3651 38.5025 34.4702C38.6161 34.5753 38.6729 34.7017 38.6729 34.8494C38.6729 34.9972 38.6161 35.1236 38.5025 35.2287C38.3903 35.3338 38.2539 35.3864 38.0934 35.3864ZM40.4569 37.1591V39H39.2807V35.7273H40.3972V36.3494H40.4313C40.5023 36.142 40.6273 35.9794 40.8063 35.8615C40.9867 35.7436 41.1969 35.6847 41.437 35.6847C41.6685 35.6847 41.8695 35.7379 42.04 35.8445C42.2118 35.9496 42.3446 36.0945 42.4384 36.2791C42.5336 36.4638 42.5804 36.6747 42.579 36.9119V39H41.4029V37.1591C41.4043 36.9972 41.3631 36.87 41.2793 36.7777C41.1969 36.6854 41.0819 36.6392 40.9341 36.6392C40.8375 36.6392 40.753 36.6605 40.6806 36.7031C40.6096 36.7443 40.5549 36.804 40.5165 36.8821C40.4782 36.9588 40.4583 37.0511 40.4569 37.1591ZM44.7363 40.2955C44.4082 40.2955 44.127 40.2486 43.8926 40.1548C43.6596 40.0625 43.4785 39.9347 43.3493 39.7713C43.2214 39.6094 43.1497 39.4233 43.1341 39.2131H44.2676C44.2789 39.2827 44.3074 39.3388 44.3528 39.3814C44.3983 39.424 44.4565 39.4545 44.5275 39.473C44.6 39.4929 44.6809 39.5028 44.7704 39.5028C44.9224 39.5028 45.0481 39.4659 45.1475 39.392C45.2484 39.3182 45.2988 39.1847 45.2988 38.9915V38.4375H45.2647C45.2221 38.5483 45.1568 38.6428 45.0687 38.7209C44.9806 38.7976 44.8748 38.8565 44.7512 38.8977C44.6277 38.9375 44.492 38.9574 44.3443 38.9574C44.1113 38.9574 43.8968 38.9034 43.7008 38.7955C43.5062 38.6875 43.35 38.5163 43.2321 38.282C43.1156 38.0476 43.0574 37.7415 43.0574 37.3636C43.0574 36.9687 43.1184 36.6477 43.2406 36.4006C43.3642 36.1534 43.5233 35.9723 43.7179 35.8572C43.9139 35.7422 44.1199 35.6847 44.3358 35.6847C44.4977 35.6847 44.6397 35.7131 44.7619 35.7699C44.8841 35.8253 44.9863 35.8999 45.0687 35.9936C45.1511 36.0859 45.2136 36.1875 45.2562 36.2983H45.2818V35.7273H46.4579V38.9915C46.4579 39.2685 46.3862 39.5036 46.2427 39.6967C46.1007 39.8913 45.9004 40.0398 45.6419 40.142C45.3833 40.2443 45.0815 40.2955 44.7363 40.2955ZM44.7789 38.1222C44.8869 38.1222 44.9792 38.0923 45.0559 38.0327C45.1341 37.9716 45.1937 37.8849 45.2349 37.7727C45.2775 37.6591 45.2988 37.5227 45.2988 37.3636C45.2988 37.2017 45.2775 37.0632 45.2349 36.9482C45.1937 36.8317 45.1341 36.7429 45.0559 36.6818C44.9792 36.6193 44.8869 36.5881 44.7789 36.5881C44.671 36.5881 44.5787 36.6193 44.502 36.6818C44.4267 36.7429 44.3684 36.8317 44.3272 36.9482C44.2875 37.0632 44.2676 37.2017 44.2676 37.3636C44.2676 37.5256 44.2875 37.6634 44.3272 37.777C44.3684 37.8892 44.4267 37.9751 44.502 38.0348C44.5787 38.093 44.671 38.1222 44.7789 38.1222ZM49.3679 39H48.0895L49.5298 34.6364H51.1491L52.5895 39H51.3111L50.3565 35.8381H50.3224L49.3679 39ZM49.1293 37.2784H51.5327V38.1648H49.1293V37.2784ZM55.149 37.5682V35.7273H56.3251V39H55.2086V38.3778H55.1745C55.1035 38.5866 54.9792 38.75 54.8017 38.8679C54.6241 38.9844 54.4132 39.0426 54.1689 39.0426C53.9402 39.0426 53.7399 38.9901 53.568 38.8849C53.3975 38.7798 53.2647 38.6349 53.1696 38.4503C53.0758 38.2656 53.0282 38.054 53.0268 37.8153V35.7273H54.2029V37.5682C54.2044 37.7301 54.2456 37.8572 54.3265 37.9496C54.4089 38.0419 54.524 38.0881 54.6717 38.0881C54.7697 38.0881 54.8542 38.0675 54.9252 38.0263C54.9977 37.9837 55.0531 37.924 55.0914 37.8473C55.1312 37.7692 55.1504 37.6761 55.149 37.5682ZM58.875 35.7273V36.5795H56.7188V35.7273H58.875ZM57.1364 34.9432H58.3125V37.9474C58.3125 37.9929 58.3203 38.0312 58.3359 38.0625C58.3516 38.0923 58.3757 38.1151 58.4084 38.1307C58.4411 38.1449 58.483 38.152 58.5341 38.152C58.5696 38.152 58.6108 38.1477 58.6577 38.1392C58.706 38.1307 58.7415 38.1236 58.7642 38.1179L58.9347 38.9446C58.8821 38.9602 58.8068 38.9794 58.7088 39.0021C58.6122 39.0249 58.4972 39.0398 58.3636 39.0469C58.0938 39.0611 57.8672 39.0334 57.6839 38.9638C57.5007 38.8928 57.3629 38.7812 57.2706 38.6293C57.1783 38.4773 57.1335 38.2869 57.1364 38.0582V34.9432ZM60.8965 39.0597C60.5414 39.0597 60.2374 38.9893 59.9846 38.8487C59.7317 38.7067 59.5378 38.5092 59.4029 38.2564C59.2679 38.0021 59.2005 37.7074 59.2005 37.3722C59.2005 37.0369 59.2679 36.7429 59.4029 36.4901C59.5378 36.2358 59.7317 36.0384 59.9846 35.8977C60.2374 35.7557 60.5414 35.6847 60.8965 35.6847C61.2516 35.6847 61.5556 35.7557 61.8084 35.8977C62.0613 36.0384 62.2551 36.2358 62.3901 36.4901C62.525 36.7429 62.5925 37.0369 62.5925 37.3722C62.5925 37.7074 62.525 38.0021 62.3901 38.2564C62.2551 38.5092 62.0613 38.7067 61.8084 38.8487C61.5556 38.9893 61.2516 39.0597 60.8965 39.0597ZM60.905 38.1903C61.0044 38.1903 61.0904 38.157 61.1628 38.0902C61.2353 38.0234 61.2914 37.9283 61.3311 37.8047C61.3709 37.6811 61.3908 37.5341 61.3908 37.3636C61.3908 37.1918 61.3709 37.0447 61.3311 36.9226C61.2914 36.799 61.2353 36.7038 61.1628 36.6371C61.0904 36.5703 61.0044 36.5369 60.905 36.5369C60.7999 36.5369 60.7097 36.5703 60.6344 36.6371C60.5591 36.7038 60.5016 36.799 60.4618 36.9226C60.4221 37.0447 60.4022 37.1918 60.4022 37.3636C60.4022 37.5341 60.4221 37.6811 60.4618 37.8047C60.5016 37.9283 60.5591 38.0234 60.6344 38.0902C60.7097 38.157 60.7999 38.1903 60.905 38.1903ZM63.0698 40.2273V35.7273H64.2374V36.2983H64.263C64.3056 36.1875 64.3681 36.0859 64.4505 35.9936C64.5328 35.8999 64.6351 35.8253 64.7573 35.7699C64.8794 35.7131 65.0215 35.6847 65.1834 35.6847C65.3993 35.6847 65.6046 35.7422 65.7992 35.8572C65.9952 35.9723 66.1543 36.1534 66.2765 36.4006C66.4 36.6477 66.4618 36.9687 66.4618 37.3636C66.4618 37.7415 66.4029 38.0547 66.285 38.3033C66.1685 38.5518 66.0123 38.7372 65.8162 38.8594C65.6216 38.9815 65.4078 39.0426 65.1749 39.0426C65.0215 39.0426 64.8844 39.0178 64.7637 38.968C64.6444 38.9169 64.5421 38.848 64.4569 38.7614C64.373 38.6733 64.3084 38.5739 64.263 38.4631H64.2459V40.2273H63.0698ZM64.2203 37.3636C64.2203 37.5227 64.2409 37.6605 64.2821 37.777C64.3248 37.892 64.3844 37.9815 64.4611 38.0455C64.5392 38.108 64.6323 38.1392 64.7402 38.1392C64.8482 38.1392 64.9398 38.1087 65.0151 38.0476C65.0918 37.9851 65.15 37.8963 65.1898 37.7812C65.231 37.6648 65.2516 37.5256 65.2516 37.3636C65.2516 37.2017 65.231 37.0632 65.1898 36.9482C65.15 36.8317 65.0918 36.7429 65.0151 36.6818C64.9398 36.6193 64.8482 36.5881 64.7402 36.5881C64.6323 36.5881 64.5392 36.6193 64.4611 36.6818C64.3844 36.7429 64.3248 36.8317 64.2821 36.9482C64.2409 37.0632 64.2203 37.2017 64.2203 37.3636ZM68.5227 39.0597C68.1733 39.0597 67.8722 38.9929 67.6193 38.8594C67.3679 38.7244 67.174 38.5312 67.0376 38.2798C66.9027 38.027 66.8352 37.7244 66.8352 37.3722C66.8352 37.0341 66.9034 36.7386 67.0398 36.4858C67.1761 36.233 67.3686 36.0362 67.6172 35.8956C67.8658 35.755 68.1591 35.6847 68.4972 35.6847C68.7443 35.6847 68.968 35.723 69.1683 35.7997C69.3686 35.8764 69.5398 35.9879 69.6818 36.1342C69.8239 36.2791 69.9332 36.4553 70.0099 36.6626C70.0866 36.87 70.125 37.1037 70.125 37.3636V37.6364H67.2017V36.9886H69.0426C69.0412 36.8949 69.017 36.8125 68.9702 36.7415C68.9247 36.669 68.8629 36.6129 68.7848 36.5732C68.7081 36.532 68.6207 36.5114 68.5227 36.5114C68.4276 36.5114 68.3402 36.532 68.2607 36.5732C68.1811 36.6129 68.1172 36.6683 68.0689 36.7393C68.022 36.8104 67.9972 36.8935 67.9943 36.9886V37.6875C67.9943 37.7926 68.0163 37.8864 68.0604 37.9688C68.1044 38.0511 68.1676 38.1158 68.25 38.1626C68.3324 38.2095 68.4318 38.233 68.5483 38.233C68.6293 38.233 68.7031 38.2216 68.7699 38.1989C68.8381 38.1761 68.8963 38.1435 68.9446 38.1009C68.9929 38.0568 69.0284 38.0043 69.0511 37.9432H70.125C70.0881 38.1705 70.0007 38.3679 69.8629 38.5355C69.7251 38.7017 69.5426 38.831 69.3153 38.9233C69.0895 39.0142 68.8253 39.0597 68.5227 39.0597ZM72.1816 39.0597C71.8265 39.0597 71.5225 38.9893 71.2697 38.8487C71.0169 38.7067 70.823 38.5092 70.688 38.2564C70.5531 38.0021 70.4856 37.7074 70.4856 37.3722C70.4856 37.0369 70.5531 36.7429 70.688 36.4901C70.823 36.2358 71.0169 36.0384 71.2697 35.8977C71.5225 35.7557 71.8265 35.6847 72.1816 35.6847C72.5027 35.6847 72.7804 35.7429 73.0147 35.8594C73.2505 35.9744 73.4331 36.1378 73.5623 36.3494C73.6916 36.5597 73.7569 36.8068 73.7583 37.0909H72.6674C72.6518 36.919 72.6021 36.7884 72.5183 36.6989C72.4359 36.608 72.3294 36.5625 72.1987 36.5625C72.0964 36.5625 72.0069 36.5923 71.9302 36.652C71.8535 36.7102 71.7939 36.799 71.7512 36.9183C71.7086 37.0362 71.6873 37.1847 71.6873 37.3636C71.6873 37.5426 71.7086 37.6918 71.7512 37.8111C71.7939 37.929 71.8535 38.0178 71.9302 38.0774C72.0069 38.1357 72.0964 38.1648 72.1987 38.1648C72.2853 38.1648 72.362 38.1449 72.4288 38.1051C72.4956 38.0639 72.5495 38.0043 72.5907 37.9261C72.6333 37.8466 72.6589 37.75 72.6674 37.6364H73.7583C73.7541 37.9247 73.688 38.1761 73.5602 38.3906C73.4324 38.6037 73.2512 38.7685 73.0169 38.8849C72.7839 39.0014 72.5055 39.0597 72.1816 39.0597ZM71.9856 38.983H72.4032L72.3691 39.179C72.5382 39.2045 72.6696 39.2642 72.7633 39.358C72.8571 39.4517 72.9047 39.5682 72.9061 39.7074C72.9089 39.9375 72.796 40.1186 72.5673 40.2507C72.34 40.3828 72.0268 40.4489 71.6277 40.4489V39.9972C71.8379 39.9972 71.9984 39.9744 72.1092 39.929C72.22 39.8849 72.2782 39.8196 72.2839 39.733C72.2896 39.6534 72.2583 39.5874 72.1902 39.5348C72.1234 39.4837 72.0211 39.4474 71.8833 39.4261L71.9856 38.983ZM75.1555 39.0511C74.9467 39.0511 74.7621 39.017 74.6016 38.9489C74.4425 38.8793 74.3175 38.7741 74.2266 38.6335C74.1357 38.4929 74.0902 38.3139 74.0902 38.0966C74.0902 37.9176 74.1207 37.7649 74.1818 37.6385C74.2429 37.5107 74.3281 37.4062 74.4375 37.3253C74.5469 37.2443 74.674 37.1825 74.8189 37.1399C74.9652 37.0973 75.1229 37.0696 75.2919 37.0568C75.4751 37.0426 75.6222 37.0256 75.733 37.0057C75.8452 36.9844 75.9261 36.9553 75.9759 36.9183C76.0256 36.88 76.0504 36.8295 76.0504 36.767V36.7585C76.0504 36.6733 76.0178 36.608 75.9524 36.5625C75.8871 36.517 75.8033 36.4943 75.701 36.4943C75.5888 36.4943 75.4972 36.5192 75.4261 36.5689C75.3565 36.6172 75.3146 36.6918 75.3004 36.7926H74.218C74.2322 36.5937 74.2955 36.4105 74.4077 36.2429C74.5213 36.0739 74.6868 35.9389 74.9041 35.8381C75.1214 35.7358 75.3928 35.6847 75.718 35.6847C75.9524 35.6847 76.1626 35.7124 76.3487 35.7678C76.5348 35.8217 76.6932 35.8977 76.8239 35.9957C76.9545 36.0923 77.054 36.206 77.1222 36.3366C77.1918 36.4659 77.2266 36.6065 77.2266 36.7585V39H76.1271V38.5398H76.1016C76.0362 38.6619 75.9567 38.7607 75.8629 38.8359C75.7706 38.9112 75.6648 38.9659 75.5455 39C75.4276 39.0341 75.2976 39.0511 75.1555 39.0511ZM75.5391 38.3097C75.6286 38.3097 75.7124 38.2912 75.7905 38.2543C75.87 38.2173 75.9347 38.1641 75.9844 38.0945C76.0341 38.0249 76.0589 37.9403 76.0589 37.8409V37.5682C76.0277 37.581 75.9943 37.593 75.9588 37.6044C75.9247 37.6158 75.8878 37.6264 75.848 37.6364C75.8097 37.6463 75.7685 37.6555 75.7244 37.6641C75.6818 37.6726 75.6371 37.6804 75.5902 37.6875C75.4993 37.7017 75.4247 37.7251 75.3665 37.7578C75.3097 37.7891 75.267 37.8281 75.2386 37.875C75.2116 37.9205 75.1982 37.9716 75.1982 38.0284C75.1982 38.1193 75.2301 38.1889 75.294 38.2372C75.358 38.2855 75.4396 38.3097 75.5391 38.3097ZM80.78 36.7926H79.6976C79.6919 36.7259 79.6685 36.6683 79.6273 36.62C79.5861 36.5717 79.5328 36.5348 79.4675 36.5092C79.4036 36.4822 79.3326 36.4688 79.2544 36.4688C79.1536 36.4688 79.0669 36.4872 78.9945 36.5241C78.9221 36.5611 78.8865 36.6136 78.888 36.6818C78.8865 36.7301 78.9071 36.7749 78.9498 36.8161C78.9938 36.8572 79.0783 36.8892 79.2033 36.9119L79.8681 37.0312C80.2033 37.0923 80.4526 37.1953 80.6159 37.3402C80.7807 37.4837 80.8638 37.6761 80.8652 37.9176C80.8638 38.1506 80.7942 38.353 80.6564 38.5249C80.5201 38.6953 80.3333 38.8274 80.0961 38.9212C79.8603 39.0135 79.5911 39.0597 79.2885 39.0597C78.7885 39.0597 78.3972 38.9574 78.1145 38.7528C77.8333 38.5483 77.6763 38.2784 77.6436 37.9432H78.8113C78.8269 38.0469 78.878 38.1271 78.9647 38.1839C79.0527 38.2393 79.1635 38.267 79.2971 38.267C79.405 38.267 79.4938 38.2486 79.5634 38.2116C79.6344 38.1747 79.6706 38.1222 79.6721 38.054C79.6706 37.9915 79.6394 37.9418 79.5783 37.9048C79.5186 37.8679 79.4249 37.8381 79.2971 37.8153L78.7175 37.7131C78.3837 37.6548 78.1337 37.544 77.9675 37.3807C77.8013 37.2173 77.7189 37.0071 77.7203 36.75C77.7189 36.5227 77.7786 36.3303 77.8993 36.1726C78.0215 36.0135 78.1955 35.8928 78.4213 35.8104C78.6486 35.7266 78.9178 35.6847 79.2289 35.6847C79.7019 35.6847 80.0748 35.7827 80.3475 35.9787C80.6216 36.1747 80.7658 36.446 80.78 36.7926Z" fill="url(#paint1_linear_60_54)"/>
<defs>
<linearGradient id="paint0_linear_60_54" x1="27" y1="17.9759" x2="73.0003" y2="17.9759" gradientUnits="userSpaceOnUse">
<stop offset="0.25" stop-color="white"/>
<stop offset="0.5" stop-color="#E01313" stop-opacity="0.5"/>
<stop offset="0.75" stop-color="#E01313" stop-opacity="0.5"/>
<stop offset="1" stop-color="white"/>
</linearGradient>
<linearGradient id="paint1_linear_60_54" x1="18" y1="36.5" x2="82" y2="36.5" gradientUnits="userSpaceOnUse">
<stop stop-color="white"/>
<stop offset="1" stop-color="#666666"/>
</linearGradient>
</defs>
</svg>
