<svg width="20" height="18" viewBox="0 0 20 18" fill="none" xmlns="http://www.w3.org/2000/svg">
<path d="M13.4886 16.8893V15.1115C13.4886 14.1685 13.1093 13.2641 12.4342 12.5973C11.7591 11.9305 10.8434 11.5559 9.88864 11.5559H4.48866C3.53388 11.5559 2.61821 11.9305 1.94308 12.5973C1.26796 13.2641 0.888672 14.1685 0.888672 15.1115V16.8893" stroke="white" stroke-width="1.7778" stroke-linecap="round" stroke-linejoin="round"/>
<path d="M7.18885 8.0001C9.17707 8.0001 10.7888 6.40821 10.7888 4.44451C10.7888 2.48081 9.17707 0.888916 7.18885 0.888916C5.20064 0.888916 3.58887 2.48081 3.58887 4.44451C3.58887 6.40821 5.20064 8.0001 7.18885 8.0001Z" stroke="white" stroke-width="1.7778" stroke-linecap="round" stroke-linejoin="round"/>
<path d="M18.8885 16.8892V15.1114C18.8879 14.3236 18.6224 13.5583 18.1337 12.9357C17.645 12.313 16.9608 11.8683 16.1885 11.6714" stroke="white" stroke-width="1.7778" stroke-linecap="round" stroke-linejoin="round"/>
<path d="M13.4888 1.00439C14.2631 1.20022 14.9495 1.64502 15.4396 2.26868C15.9298 2.89234 16.1958 3.65938 16.1958 4.44887C16.1958 5.23837 15.9298 6.0054 15.4396 6.62906C14.9495 7.25272 14.2631 7.69753 13.4888 7.89335" stroke="white" stroke-width="1.7778" stroke-linecap="round" stroke-linejoin="round"/>
</svg>
