<svg width="17" height="18" viewBox="0 0 17 18" fill="none" xmlns="http://www.w3.org/2000/svg">
<path d="M7.66667 16.7839C7.92003 16.9243 8.20744 16.9983 8.5 16.9983C8.79256 16.9983 9.07997 16.9243 9.33333 16.7839L15.1667 13.5836C15.4198 13.4433 15.63 13.2415 15.7763 12.9986C15.9225 12.7557 15.9997 12.4801 16 12.1995V5.79883C15.9997 5.51822 15.9225 5.24262 15.7763 4.99968C15.63 4.75674 15.4198 4.555 15.1667 4.41469L9.33333 1.21438C9.07997 1.07394 8.79256 1 8.5 1C8.20744 1 7.92003 1.07394 7.66667 1.21438L1.83333 4.41469C1.58022 4.555 1.36998 4.75674 1.22372 4.99968C1.07745 5.24262 1.0003 5.51822 1 5.79883V12.1995C1.0003 12.4801 1.07745 12.7557 1.22372 12.9986C1.36998 13.2415 1.58022 13.4433 1.83333 13.5836L7.66667 16.7839Z" stroke="white" stroke-width="2" stroke-linecap="round" stroke-linejoin="round"/>
<path d="M8.5 17V8.99927" stroke="white" stroke-width="2" stroke-linecap="round" stroke-linejoin="round"/>
<path d="M1.24951 4.99878L7.66868 8.78635C7.92145 8.9259 8.20793 8.99935 8.49951 8.99935C8.79109 8.99935 9.07757 8.9259 9.33034 8.78635L15.7495 4.99878" stroke="white" stroke-width="2" stroke-linecap="round" stroke-linejoin="round"/>
<path d="M4.75 2.8147L12.25 6.9351" stroke="white" stroke-width="2" stroke-linecap="round" stroke-linejoin="round"/>
</svg>
