<svg width="18" height="18" viewBox="0 0 18 18" fill="none" xmlns="http://www.w3.org/2000/svg">
<path d="M6.28928 16.9999C6.7802 16.9999 7.17817 16.6413 7.17817 16.1989C7.17817 15.7566 6.7802 15.3979 6.28928 15.3979C5.79836 15.3979 5.40039 15.7566 5.40039 16.1989C5.40039 16.6413 5.79836 16.9999 6.28928 16.9999Z" stroke="white" stroke-width="2" stroke-linecap="round" stroke-linejoin="round"/>
<path d="M16.0666 16.9999C16.5575 16.9999 16.9555 16.6413 16.9555 16.1989C16.9555 15.7566 16.5575 15.3979 16.0666 15.3979C15.5757 15.3979 15.1777 15.7566 15.1777 16.1989C15.1777 16.6413 15.5757 16.9999 16.0666 16.9999Z" stroke="white" stroke-width="2" stroke-linecap="round" stroke-linejoin="round"/>
<path d="M1 1H2.59681L4.72056 10.948C4.79847 11.3124 5.00053 11.6381 5.29198 11.869C5.58343 12.1 5.94603 12.2219 6.31736 12.2136H14.1257C14.4892 12.213 14.8415 12.088 15.1246 11.8594C15.4076 11.6308 15.6045 11.3121 15.6826 10.956L17 5.00485H3.4511" stroke="white" stroke-width="2" stroke-linecap="round" stroke-linejoin="round"/>
</svg>
